
<svg xmlns="http://www.w3.org/2000/svg"
     xmlns:xlink="http://www.w3.org/1999/xlink" version="1.1" width="386"
     height="221">
    <defs/>
    <g transform=" scale(0.85) translate(-590.828125,-293.828125)">
        <rect x="779" y="429" width="2" height="2" fill="#000000" stroke="none"
              transform="translate(0,415)scale(1,-1)translate(0,-415)"
              pointer-events="none"/>
        <rect x="779" y="389" width="2" height="2" fill="#000000" stroke="none"
              transform="translate(0,415)scale(1,-1)translate(0,-415)"
              pointer-events="none"/>
        <rect x="909" y="409" width="2" height="2" fill="#000000" stroke="none"
              transform="translate(0,415)scale(1,-1)translate(0,-415)"
              pointer-events="none"/>
        <path d="M 800.07 460 L 800.07 360 L 890.07 410 Z" fill="#ffffff"
              stroke="#000000" stroke-width="2" stroke-miterlimit="10"
              transform="translate(0,415)scale(1,-1)translate(0,-415)"
              pointer-events="none"/>
        <path d="M 780.93 430 L 798.93 430" fill="none" stroke="#000000"
              stroke-width="2" stroke-linecap="square" stroke-miterlimit="10"
              transform="translate(0,415)scale(1,-1)translate(0,-415)"
              pointer-events="none"/>
        <path d="M 781.07 390 L 799.07 390" fill="none" stroke="#000000"
              stroke-width="2" stroke-linecap="square" stroke-miterlimit="10"
              transform="translate(0,415)scale(1,-1)translate(0,-415)"
              pointer-events="none"/>
        <path d="M 890.07 410 L 909.07 410" fill="none" stroke="#000000"
              stroke-width="2" stroke-linecap="square" stroke-miterlimit="10"
              transform="translate(0,415)scale(1,-1)translate(0,-415)"
              pointer-events="none"/>
        <path d="M 808.05 430 L 815.89 430" fill="none" stroke="#000000"
              stroke-width="2" stroke-linecap="square" stroke-miterlimit="10"
              transform="translate(0,415)scale(1,-1)translate(0,-415)"
              pointer-events="none"/>
        <path d="M 808.05 390 L 815.89 390" fill="none" stroke="#000000"
              stroke-width="2" stroke-linecap="square" stroke-miterlimit="10"
              transform="translate(0,415)scale(1,-1)translate(0,-415)"
              pointer-events="none"/>
        <path d="M 811.97 386.08 L 811.97 393.92" fill="none" stroke="#000000"
              stroke-width="2" stroke-linecap="square" stroke-miterlimit="10"
              transform="translate(0,415)scale(1,-1)translate(0,-415)"
              pointer-events="none"/>
        <rect x="850" y="500" width="101" height="12" fill-opacity="0"
              fill="#dae2f2" stroke="none" pointer-events="none"/>
        <g fill="#000000" font-family="Arial,Helvetica" font-weight="bold"
           text-anchor="middle" font-size="20px">
            <text x="900.5" y="514">
                Differential Amplifier
            </text>
        </g>
        <rect x="679" y="369" width="2" height="2" fill="#000000" stroke="none"
              transform="rotate(90,680,400)" pointer-events="none"/>
        <rect x="679" y="429" width="2" height="2" fill="#000000" stroke="none"
              transform="rotate(90,680,400)" pointer-events="none"/>
        <path d="M 680 382 L 687 385 L 680 388" fill="none" stroke="#000000"
              stroke-width="2" stroke-linejoin="round" stroke-linecap="round"
              stroke-miterlimit="10" transform="rotate(90,680,400)"
              pointer-events="none"/>
        <path d="M 680 388 L 673 391 L 680 394" fill="none" stroke="#000000"
              stroke-width="2" stroke-linejoin="round" stroke-linecap="round"
              stroke-miterlimit="10" transform="rotate(90,680,400)"
              pointer-events="none"/>
        <path d="M 680 394 L 687 397 L 680 400" fill="none" stroke="#000000"
              stroke-width="2" stroke-linejoin="round" stroke-linecap="round"
              stroke-miterlimit="10" transform="rotate(90,680,400)"
              pointer-events="none"/>
        <path d="M 680 400 L 673 403 L 680 406" fill="none" stroke="#000000"
              stroke-width="2" stroke-linejoin="round" stroke-linecap="round"
              stroke-miterlimit="10" transform="rotate(90,680,400)"
              pointer-events="none"/>
        <path d="M 680 406 L 687 409 L 680 412" fill="none" stroke="#000000"
              stroke-width="2" stroke-linejoin="round" stroke-linecap="round"
              stroke-miterlimit="10" transform="rotate(90,680,400)"
              pointer-events="none"/>
        <path d="M 680 412 L 673 415 L 680 418" fill="none" stroke="#000000"
              stroke-width="2" stroke-linejoin="round" stroke-linecap="round"
              stroke-miterlimit="10" transform="rotate(90,680,400)"
              pointer-events="none"/>
        <path d="M 680 371 L 680 381" fill="#000000" stroke="#000000"
              stroke-width="2" stroke-linecap="square" stroke-miterlimit="10"
              transform="rotate(90,680,400)" pointer-events="none"/>
        <path d="M 680 419 L 680 429" fill="#000000" stroke="#000000"
              stroke-width="2" stroke-linecap="square" stroke-miterlimit="10"
              transform="rotate(90,680,400)" pointer-events="none"/>
        <rect x="670" y="370" width="16" height="14" fill-opacity="0"
              fill="#dae2f2" stroke="none" pointer-events="none"/>
        <g fill="#000000" font-family="Arial,Helvetica" font-weight="bold"
           text-anchor="middle" font-size="16px">
            <text x="678" y="383">
                R1
            </text>
        </g>
        <rect x="679" y="409" width="2" height="2" fill="#000000" stroke="none"
              transform="rotate(90,680,440)" pointer-events="none"/>
        <rect x="679" y="469" width="2" height="2" fill="#000000" stroke="none"
              transform="rotate(90,680,440)" pointer-events="none"/>
        <path d="M 680 422 L 687 425 L 680 428" fill="none" stroke="#000000"
              stroke-width="2" stroke-linejoin="round" stroke-linecap="round"
              stroke-miterlimit="10" transform="rotate(90,680,440)"
              pointer-events="none"/>
        <path d="M 680 428 L 673 431 L 680 434" fill="none" stroke="#000000"
              stroke-width="2" stroke-linejoin="round" stroke-linecap="round"
              stroke-miterlimit="10" transform="rotate(90,680,440)"
              pointer-events="none"/>
        <path d="M 680 434 L 687 437 L 680 440" fill="none" stroke="#000000"
              stroke-width="2" stroke-linejoin="round" stroke-linecap="round"
              stroke-miterlimit="10" transform="rotate(90,680,440)"
              pointer-events="none"/>
        <path d="M 680 440 L 673 443 L 680 446" fill="none" stroke="#000000"
              stroke-width="2" stroke-linejoin="round" stroke-linecap="round"
              stroke-miterlimit="10" transform="rotate(90,680,440)"
              pointer-events="none"/>
        <path d="M 680 446 L 687 449 L 680 452" fill="none" stroke="#000000"
              stroke-width="2" stroke-linejoin="round" stroke-linecap="round"
              stroke-miterlimit="10" transform="rotate(90,680,440)"
              pointer-events="none"/>
        <path d="M 680 452 L 673 455 L 680 458" fill="none" stroke="#000000"
              stroke-width="2" stroke-linejoin="round" stroke-linecap="round"
              stroke-miterlimit="10" transform="rotate(90,680,440)"
              pointer-events="none"/>
        <path d="M 680 411 L 680 421" fill="#000000" stroke="#000000"
              stroke-width="2" stroke-linecap="square" stroke-miterlimit="10"
              transform="rotate(90,680,440)" pointer-events="none"/>
        <path d="M 680 459 L 680 469" fill="#000000" stroke="#000000"
              stroke-width="2" stroke-linecap="square" stroke-miterlimit="10"
              transform="rotate(90,680,440)" pointer-events="none"/>
        <rect x="670" y="410" width="16" height="14" fill-opacity="0"
              fill="#dae2f2" stroke="none" pointer-events="none"/>
        <g fill="#000000" font-family="Arial,Helvetica" font-weight="bold"
           text-anchor="middle" font-size="16px">
            <text x="678" y="423">
                R2
            </text>
        </g>
        <rect x="739" y="449" width="2" height="2" fill="#000000" stroke="none"
              transform="rotate(180,740,480)" pointer-events="none"/>
        <rect x="739" y="509" width="2" height="2" fill="#000000" stroke="none"
              transform="rotate(180,740,480)" pointer-events="none"/>
        <path d="M 740 462 L 747 465 L 740 468" fill="none" stroke="#000000"
              stroke-width="2" stroke-linejoin="round" stroke-linecap="round"
              stroke-miterlimit="10" transform="rotate(180,740,480)"
              pointer-events="none"/>
        <path d="M 740 468 L 733 471 L 740 474" fill="none" stroke="#000000"
              stroke-width="2" stroke-linejoin="round" stroke-linecap="round"
              stroke-miterlimit="10" transform="rotate(180,740,480)"
              pointer-events="none"/>
        <path d="M 740 474 L 747 477 L 740 480" fill="none" stroke="#000000"
              stroke-width="2" stroke-linejoin="round" stroke-linecap="round"
              stroke-miterlimit="10" transform="rotate(180,740,480)"
              pointer-events="none"/>
        <path d="M 740 480 L 733 483 L 740 486" fill="none" stroke="#000000"
              stroke-width="2" stroke-linejoin="round" stroke-linecap="round"
              stroke-miterlimit="10" transform="rotate(180,740,480)"
              pointer-events="none"/>
        <path d="M 740 486 L 747 489 L 740 492" fill="none" stroke="#000000"
              stroke-width="2" stroke-linejoin="round" stroke-linecap="round"
              stroke-miterlimit="10" transform="rotate(180,740,480)"
              pointer-events="none"/>
        <path d="M 740 492 L 733 495 L 740 498" fill="none" stroke="#000000"
              stroke-width="2" stroke-linejoin="round" stroke-linecap="round"
              stroke-miterlimit="10" transform="rotate(180,740,480)"
              pointer-events="none"/>
        <path d="M 740 451 L 740 461" fill="#000000" stroke="#000000"
              stroke-width="2" stroke-linecap="square" stroke-miterlimit="10"
              transform="rotate(180,740,480)" pointer-events="none"/>
        <path d="M 740 499 L 740 509" fill="#000000" stroke="#000000"
              stroke-width="2" stroke-linecap="square" stroke-miterlimit="10"
              transform="rotate(180,740,480)" pointer-events="none"/>
        <rect x="750" y="498" width="15" height="12" fill-opacity="0"
              fill="#dae2f2" stroke="none" pointer-events="none"/>
        <g fill="#000000" font-family="Arial,Helvetica" font-weight="bold"
           text-anchor="middle" font-size="16px">
            <text x="757.5" y="510">
                R3
            </text>
        </g>
        <rect x="839" y="299" width="2" height="2" fill="#000000" stroke="none"
              transform="rotate(90,840,330)" pointer-events="none"/>
        <rect x="839" y="359" width="2" height="2" fill="#000000" stroke="none"
              transform="rotate(90,840,330)" pointer-events="none"/>
        <path d="M 840 312 L 847 315 L 840 318" fill="none" stroke="#000000"
              stroke-width="2" stroke-linejoin="round" stroke-linecap="round"
              stroke-miterlimit="10" transform="rotate(90,840,330)"
              pointer-events="none"/>
        <path d="M 840 318 L 833 321 L 840 324" fill="none" stroke="#000000"
              stroke-width="2" stroke-linejoin="round" stroke-linecap="round"
              stroke-miterlimit="10" transform="rotate(90,840,330)"
              pointer-events="none"/>
        <path d="M 840 324 L 847 327 L 840 330" fill="none" stroke="#000000"
              stroke-width="2" stroke-linejoin="round" stroke-linecap="round"
              stroke-miterlimit="10" transform="rotate(90,840,330)"
              pointer-events="none"/>
        <path d="M 840 330 L 833 333 L 840 336" fill="none" stroke="#000000"
              stroke-width="2" stroke-linejoin="round" stroke-linecap="round"
              stroke-miterlimit="10" transform="rotate(90,840,330)"
              pointer-events="none"/>
        <path d="M 840 336 L 847 339 L 840 342" fill="none" stroke="#000000"
              stroke-width="2" stroke-linejoin="round" stroke-linecap="round"
              stroke-miterlimit="10" transform="rotate(90,840,330)"
              pointer-events="none"/>
        <path d="M 840 342 L 833 345 L 840 348" fill="none" stroke="#000000"
              stroke-width="2" stroke-linejoin="round" stroke-linecap="round"
              stroke-miterlimit="10" transform="rotate(90,840,330)"
              pointer-events="none"/>
        <path d="M 840 301 L 840 311" fill="#000000" stroke="#000000"
              stroke-width="2" stroke-linecap="square" stroke-miterlimit="10"
              transform="rotate(90,840,330)" pointer-events="none"/>
        <path d="M 840 349 L 840 359" fill="#000000" stroke="#000000"
              stroke-width="2" stroke-linecap="square" stroke-miterlimit="10"
              transform="rotate(90,840,330)" pointer-events="none"/>
        <rect x="830" y="300" width="15" height="12" fill-opacity="0"
              fill="#dae2f2" stroke="none" pointer-events="none"/>
        <g fill="#000000" font-family="Arial,Helvetica" font-weight="bold"
           text-anchor="middle" font-size="16px">
            <text x="837.5" y="312">
                R4
            </text>
        </g>
        <rect x="739" y="509" width="2" height="2" fill="#000000" stroke="none"
              pointer-events="none"/>
        <path d="M 729 531 C 751.02 531 751.02 531 751.02 531" fill="none"
              stroke="#000000" stroke-width="2" stroke-linecap="round"
              stroke-miterlimit="10" pointer-events="none"/>
        <path d="M 733 537 C 742.57 537 747 537 747 537" fill="none"
              stroke="#000000" stroke-width="2" stroke-linecap="round"
              stroke-miterlimit="10" pointer-events="none"/>
        <path d="M 737 543 C 740.12 543 743 543 743 543" fill="none"
              stroke="#000000" stroke-width="2" stroke-linecap="round"
              stroke-miterlimit="10" pointer-events="none"/>
        <path d="M 740 511 L 740 529" fill="#000000" stroke="#000000"
              stroke-width="2" stroke-linecap="square" stroke-miterlimit="10"
              pointer-events="none"/>
        <rect x="649" y="399" width="2" height="2" fill="#000000" stroke="none"
              pointer-events="none"/>
        <path d="M 632 400 L 649 400" fill="#000000" stroke="#000000"
              stroke-width="2" stroke-linecap="square" stroke-miterlimit="10"
              pointer-events="none"/>
        <path d="M 627.06 394.34 L 632.72 400 L 627.06 405.66" fill="none"
              stroke="#000000" stroke-width="2" stroke-linecap="square"
              stroke-miterlimit="10" pointer-events="none"/>
        <rect x="599" y="390" width="14" height="12" fill-opacity="0"
              fill="#dae2f2" stroke="none" pointer-events="none"/>
        <g fill="#000000" font-family="Arial,Helvetica" font-weight="bold"
           text-anchor="middle" font-size="18px">
            <text x="606" y="403">
                V1
            </text>
        </g>
        <rect x="959" y="419" width="2" height="2" fill="#000000" stroke="none"
              transform="rotate(180,950,420)" pointer-events="none"/>
        <path d="M 942 420 L 959 420" fill="#000000" stroke="#000000"
              stroke-width="2" stroke-linecap="square" stroke-miterlimit="10"
              transform="rotate(180,950,420)" pointer-events="none"/>
        <path d="M 946.91 414.34 L 941.26 420 L 946.91 425.66" fill="none"
              stroke="#000000" stroke-width="2" stroke-linecap="square"
              stroke-miterlimit="10" transform="rotate(180,950,420)"
              pointer-events="none"/>
        <rect x="980" y="410" width="24" height="14" fill-opacity="0"
              fill="#dae2f2" stroke="none" pointer-events="none"/>
        <g fill="#000000" font-family="Arial,Helvetica" font-weight="bold"
           text-anchor="middle" font-size="18px">
            <text x="992" y="424">
                Vout
            </text>
        </g>
        <rect x="649" y="439" width="2" height="2" fill="#000000" stroke="none"
              pointer-events="none"/>
        <path d="M 632 440 L 649 440" fill="#000000" stroke="#000000"
              stroke-width="2" stroke-linecap="square" stroke-miterlimit="10"
              pointer-events="none"/>
        <path d="M 627.06 434.34 L 632.72 440 L 627.06 445.66" fill="none"
              stroke="#000000" stroke-width="2" stroke-linecap="square"
              stroke-miterlimit="10" pointer-events="none"/>
        <rect x="599" y="430" width="14" height="12" fill-opacity="0"
              fill="#dae2f2" stroke="none" pointer-events="none"/>
        <g fill="#000000" font-family="Arial,Helvetica" font-weight="bold"
           text-anchor="middle" font-size="18px">
            <text x="606" y="443">
                V2
            </text>
        </g>
        <path d="M 910 420 L 940 420" fill="none" stroke="#000000"
              stroke-width="2" stroke-miterlimit="10" pointer-events="none"/>
        <path d="M 870 330 L 920 330 L 920 418" fill="none" stroke="#000000"
              stroke-width="2" stroke-miterlimit="10" pointer-events="none"/>
        <ellipse cx="920" cy="420" rx="2" ry="2" fill="#000000" stroke="#000000"
                 stroke-width="2" pointer-events="none"/>
        <path d="M 740 450 L 740 440 L 780 440" fill="none" stroke="#000000"
              stroke-width="2" stroke-miterlimit="10" pointer-events="none"/>
        <path d="M 710 440 L 738 440" fill="none" stroke="#000000"
              stroke-width="2" stroke-miterlimit="10" pointer-events="none"/>
        <ellipse cx="740" cy="440" rx="2" ry="2" fill="#000000" stroke="#000000"
                 stroke-width="2" pointer-events="none"/>
        <path d="M 710 400 L 780 400" fill="none" stroke="#000000"
              stroke-width="2" stroke-miterlimit="10" pointer-events="none"/>
        <path d="M 810 330 L 740 330 L 740 398" fill="none" stroke="#000000"
              stroke-width="2" stroke-miterlimit="10" pointer-events="none"/>
        <ellipse cx="740" cy="400" rx="2" ry="2" fill="#000000" stroke="#000000"
                 stroke-width="2" pointer-events="none"/>
    </g>
</svg>