
<svg xmlns="http://www.w3.org/2000/svg"
     xmlns:xlink="http://www.w3.org/1999/xlink" version="1.1" width="406"
     height="220">
    <defs/>
    <g transform=" scale(0.85) translate(-509.6875,-244.515625)">
        <rect x="679" y="399" width="2" height="2" fill="#000000" stroke="none"
              transform="translate(0,385)scale(1,-1)translate(0,-385)"
              pointer-events="none"/>
        <rect x="679" y="359" width="2" height="2" fill="#000000" stroke="none"
              transform="translate(0,385)scale(1,-1)translate(0,-385)"
              pointer-events="none"/>
        <rect x="809" y="379" width="2" height="2" fill="#000000" stroke="none"
              transform="translate(0,385)scale(1,-1)translate(0,-385)"
              pointer-events="none"/>
        <path d="M 700.07 430 L 700.07 330 L 790.07 380 Z" fill="#ffffff"
              stroke="#000000" stroke-width="2" stroke-miterlimit="10"
              transform="translate(0,385)scale(1,-1)translate(0,-385)"
              pointer-events="none"/>
        <path d="M 680.93 400 L 698.93 400" fill="none" stroke="#000000"
              stroke-width="2" stroke-linecap="square" stroke-miterlimit="10"
              transform="translate(0,385)scale(1,-1)translate(0,-385)"
              pointer-events="none"/>
        <path d="M 681.07 360 L 699.07 360" fill="none" stroke="#000000"
              stroke-width="2" stroke-linecap="square" stroke-miterlimit="10"
              transform="translate(0,385)scale(1,-1)translate(0,-385)"
              pointer-events="none"/>
        <path d="M 790.07 380 L 809.07 380" fill="none" stroke="#000000"
              stroke-width="2" stroke-linecap="square" stroke-miterlimit="10"
              transform="translate(0,385)scale(1,-1)translate(0,-385)"
              pointer-events="none"/>
        <path d="M 708.05 400 L 715.89 400" fill="none" stroke="#000000"
              stroke-width="2" stroke-linecap="square" stroke-miterlimit="10"
              transform="translate(0,385)scale(1,-1)translate(0,-385)"
              pointer-events="none"/>
        <path d="M 708.05 360 L 715.89 360" fill="none" stroke="#000000"
              stroke-width="2" stroke-linecap="square" stroke-miterlimit="10"
              transform="translate(0,385)scale(1,-1)translate(0,-385)"
              pointer-events="none"/>
        <path d="M 711.97 356.08 L 711.97 363.92" fill="none" stroke="#000000"
              stroke-width="2" stroke-linecap="square" stroke-miterlimit="10"
              transform="translate(0,385)scale(1,-1)translate(0,-385)"
              pointer-events="none"/>
        <rect x="750" y="470" width="94" height="14" fill-opacity="0"
              fill="#dae2f2" stroke="none" pointer-events="none"/>
        <g fill="#000000" font-family="Arial,Helvetica" font-weight="bold"
           text-anchor="middle" font-size="18px">
            <text x="797" y="484">
                Inverting Op-Amp
            </text>
        </g>
        <rect x="759" y="249" width="2" height="2" fill="#000000" stroke="none"
              transform="rotate(90,760,280)" pointer-events="none"/>
        <rect x="759" y="309" width="2" height="2" fill="#000000" stroke="none"
              transform="rotate(90,760,280)" pointer-events="none"/>
        <path d="M 760 262 L 767 265 L 760 268" fill="none" stroke="#000000"
              stroke-width="2" stroke-linejoin="round" stroke-linecap="round"
              stroke-miterlimit="10" transform="rotate(90,760,280)"
              pointer-events="none"/>
        <path d="M 760 268 L 753 271 L 760 274" fill="none" stroke="#000000"
              stroke-width="2" stroke-linejoin="round" stroke-linecap="round"
              stroke-miterlimit="10" transform="rotate(90,760,280)"
              pointer-events="none"/>
        <path d="M 760 274 L 767 277 L 760 280" fill="none" stroke="#000000"
              stroke-width="2" stroke-linejoin="round" stroke-linecap="round"
              stroke-miterlimit="10" transform="rotate(90,760,280)"
              pointer-events="none"/>
        <path d="M 760 280 L 753 283 L 760 286" fill="none" stroke="#000000"
              stroke-width="2" stroke-linejoin="round" stroke-linecap="round"
              stroke-miterlimit="10" transform="rotate(90,760,280)"
              pointer-events="none"/>
        <path d="M 760 286 L 767 289 L 760 292" fill="none" stroke="#000000"
              stroke-width="2" stroke-linejoin="round" stroke-linecap="round"
              stroke-miterlimit="10" transform="rotate(90,760,280)"
              pointer-events="none"/>
        <path d="M 760 292 L 753 295 L 760 298" fill="none" stroke="#000000"
              stroke-width="2" stroke-linejoin="round" stroke-linecap="round"
              stroke-miterlimit="10" transform="rotate(90,760,280)"
              pointer-events="none"/>
        <path d="M 760 251 L 760 261" fill="#000000" stroke="#000000"
              stroke-width="2" stroke-linecap="square" stroke-miterlimit="10"
              transform="rotate(90,760,280)" pointer-events="none"/>
        <path d="M 760 299 L 760 309" fill="#000000" stroke="#000000"
              stroke-width="2" stroke-linecap="square" stroke-miterlimit="10"
              transform="rotate(90,760,280)" pointer-events="none"/>
        <rect x="750" y="250" width="15" height="14" fill-opacity="0"
              fill="#dae2f2" stroke="none" pointer-events="none"/>
        <g fill="#000000" font-family="Arial,Helvetica" font-weight="bold"
           text-anchor="middle" font-size="16px">
            <text x="757.5" y="263">
                R2
            </text>
        </g>
        <rect x="619" y="339" width="2" height="2" fill="#000000" stroke="none"
              transform="rotate(90,620,370)" pointer-events="none"/>
        <rect x="619" y="399" width="2" height="2" fill="#000000" stroke="none"
              transform="rotate(90,620,370)" pointer-events="none"/>
        <path d="M 620 352 L 627 355 L 620 358" fill="none" stroke="#000000"
              stroke-width="2" stroke-linejoin="round" stroke-linecap="round"
              stroke-miterlimit="10" transform="rotate(90,620,370)"
              pointer-events="none"/>
        <path d="M 620 358 L 613 361 L 620 364" fill="none" stroke="#000000"
              stroke-width="2" stroke-linejoin="round" stroke-linecap="round"
              stroke-miterlimit="10" transform="rotate(90,620,370)"
              pointer-events="none"/>
        <path d="M 620 364 L 627 367 L 620 370" fill="none" stroke="#000000"
              stroke-width="2" stroke-linejoin="round" stroke-linecap="round"
              stroke-miterlimit="10" transform="rotate(90,620,370)"
              pointer-events="none"/>
        <path d="M 620 370 L 613 373 L 620 376" fill="none" stroke="#000000"
              stroke-width="2" stroke-linejoin="round" stroke-linecap="round"
              stroke-miterlimit="10" transform="rotate(90,620,370)"
              pointer-events="none"/>
        <path d="M 620 376 L 627 379 L 620 382" fill="none" stroke="#000000"
              stroke-width="2" stroke-linejoin="round" stroke-linecap="round"
              stroke-miterlimit="10" transform="rotate(90,620,370)"
              pointer-events="none"/>
        <path d="M 620 382 L 613 385 L 620 388" fill="none" stroke="#000000"
              stroke-width="2" stroke-linejoin="round" stroke-linecap="round"
              stroke-miterlimit="10" transform="rotate(90,620,370)"
              pointer-events="none"/>
        <path d="M 620 341 L 620 351" fill="#000000" stroke="#000000"
              stroke-width="2" stroke-linecap="square" stroke-miterlimit="10"
              transform="rotate(90,620,370)" pointer-events="none"/>
        <path d="M 620 389 L 620 399" fill="#000000" stroke="#000000"
              stroke-width="2" stroke-linecap="square" stroke-miterlimit="10"
              transform="rotate(90,620,370)" pointer-events="none"/>
        <rect x="610" y="340" width="15" height="14" fill-opacity="0"
              fill="#dae2f2" stroke="none" pointer-events="none"/>
        <g fill="#000000" font-family="Arial,Helvetica" font-weight="bold"
           text-anchor="middle" font-size="16px">
            <text x="617.5" y="353">
                R1
            </text>
        </g>
        <rect x="579" y="369" width="2" height="2" fill="#000000" stroke="none"
              pointer-events="none"/>
        <path d="M 562 370 L 579 370" fill="#000000" stroke="#000000"
              stroke-width="2" stroke-linecap="square" stroke-miterlimit="10"
              pointer-events="none"/>
        <path d="M 557.06 364.34 L 562.72 370 L 557.06 375.66" fill="none"
              stroke="#000000" stroke-width="2" stroke-linecap="square"
              stroke-miterlimit="10" pointer-events="none"/>
        <rect x="520" y="360" width="16" height="13" fill-opacity="0"
              fill="#dae2f2" stroke="none" pointer-events="none"/>
        <g fill="#000000" font-family="Arial,Helvetica" font-weight="bold"
           text-anchor="middle" font-size="18px">
            <text x="528" y="373.5">
                Vin
            </text>
        </g>
        <rect x="899" y="389" width="2" height="2" fill="#000000" stroke="none"
              transform="rotate(180,890,390)" pointer-events="none"/>
        <path d="M 882 390 L 899 390" fill="#000000" stroke="#000000"
              stroke-width="2" stroke-linecap="square" stroke-miterlimit="10"
              transform="rotate(180,890,390)" pointer-events="none"/>
        <path d="M 886.91 384.34 L 881.26 390 L 886.91 395.66" fill="none"
              stroke="#000000" stroke-width="2" stroke-linecap="square"
              stroke-miterlimit="10" transform="rotate(180,890,390)"
              pointer-events="none"/>
        <rect x="920" y="380" width="22" height="13" fill-opacity="0"
              fill="#dae2f2" stroke="none" pointer-events="none"/>
        <g fill="#000000" font-family="Arial,Helvetica" font-weight="bold"
           text-anchor="middle" font-size="18px">
            <text x="931" y="393.5">
                Vout
            </text>
        </g>
        <rect x="639" y="459" width="2" height="2" fill="#000000" stroke="none"
              pointer-events="none"/>
        <path d="M 629 481 C 651.02 481 651.02 481 651.02 481" fill="none"
              stroke="#000000" stroke-width="2" stroke-linecap="round"
              stroke-miterlimit="10" pointer-events="none"/>
        <path d="M 633 487 C 642.57 487 647 487 647 487" fill="none"
              stroke="#000000" stroke-width="2" stroke-linecap="round"
              stroke-miterlimit="10" pointer-events="none"/>
        <path d="M 637 493 C 640.12 493 643 493 643 493" fill="none"
              stroke="#000000" stroke-width="2" stroke-linecap="round"
              stroke-miterlimit="10" pointer-events="none"/>
        <path d="M 640 461 L 640 479" fill="#000000" stroke="#000000"
              stroke-width="2" stroke-linecap="square" stroke-miterlimit="10"
              pointer-events="none"/>
        <path d="M 580 370 L 590 370" fill="none" stroke="#000000"
              stroke-width="2" stroke-miterlimit="10" pointer-events="none"/>
        <path d="M 650 370 L 678 370" fill="none" stroke="#000000"
              stroke-width="2" stroke-miterlimit="10" pointer-events="none"/>
        <ellipse cx="680" cy="370" rx="2" ry="2" fill="#000000" stroke="#000000"
                 stroke-width="2" pointer-events="none"/>
        <path d="M 680 410 L 640 410 L 640 460" fill="none" stroke="#000000"
              stroke-width="2" stroke-miterlimit="10" pointer-events="none"/>
        <path d="M 810 390 L 880 390" fill="none" stroke="#000000"
              stroke-width="2" stroke-miterlimit="10" pointer-events="none"/>
        <path d="M 790 280 L 830 280 L 830 388" fill="none" stroke="#000000"
              stroke-width="2" stroke-miterlimit="10" pointer-events="none"/>
        <ellipse cx="830" cy="390" rx="2" ry="2" fill="#000000" stroke="#000000"
                 stroke-width="2" pointer-events="none"/>
        <path d="M 730 280 L 680 280 L 680 368" fill="none" stroke="#000000"
              stroke-width="2" stroke-miterlimit="10" pointer-events="none"/>
        <ellipse cx="680" cy="370" rx="2" ry="2" fill="#000000" stroke="#000000"
                 stroke-width="2" pointer-events="none"/>
    </g>
</svg>