
<svg xmlns="http://www.w3.org/2000/svg"
     xmlns:xlink="http://www.w3.org/1999/xlink" version="1.1" width="656"
     height="280">
    <defs/>
    <g transform=" scale(0.88) translate(-728.109375,-326.9375)">
        <rect x="1062.6" y="516.6" width="2.8" height="2.8" fill="#000000"
              stroke="none"
              transform="translate(0,497)scale(1,-1)translate(0,-497)"
              pointer-events="none"/>
        <rect x="1062.6" y="460.6" width="2.8" height="2.8" fill="#000000"
              stroke="none"
              transform="translate(0,497)scale(1,-1)translate(0,-497)"
              pointer-events="none"/>
        <rect x="1244.6" y="488.6" width="2.8" height="2.8" fill="#000000"
              stroke="none"
              transform="translate(0,497)scale(1,-1)translate(0,-497)"
              pointer-events="none"/>
        <path d="M 1092.1 560 L 1092.1 420 L 1218.1 490 Z" fill="#ffffff"
              stroke="#000000" stroke-width="2.8" stroke-miterlimit="10"
              transform="translate(0,497)scale(1,-1)translate(0,-497)"
              pointer-events="none"/>
        <path d="M 1065.3 518 L 1090.5 518" fill="none" stroke="#000000"
              stroke-width="2.8" stroke-linecap="square" stroke-miterlimit="10"
              transform="translate(0,497)scale(1,-1)translate(0,-497)"
              pointer-events="none"/>
        <path d="M 1065.5 462 L 1090.7 462" fill="none" stroke="#000000"
              stroke-width="2.8" stroke-linecap="square" stroke-miterlimit="10"
              transform="translate(0,497)scale(1,-1)translate(0,-497)"
              pointer-events="none"/>
        <path d="M 1218.1 490 L 1244.7 490" fill="none" stroke="#000000"
              stroke-width="2.8" stroke-linecap="square" stroke-miterlimit="10"
              transform="translate(0,497)scale(1,-1)translate(0,-497)"
              pointer-events="none"/>
        <path d="M 1103.27 518 L 1114.25 518" fill="none" stroke="#000000"
              stroke-width="2.8" stroke-linecap="square" stroke-miterlimit="10"
              transform="translate(0,497)scale(1,-1)translate(0,-497)"
              pointer-events="none"/>
        <path d="M 1103.27 462 L 1114.25 462" fill="none" stroke="#000000"
              stroke-width="2.8" stroke-linecap="square" stroke-miterlimit="10"
              transform="translate(0,497)scale(1,-1)translate(0,-497)"
              pointer-events="none"/>
        <path d="M 1108.76 456.51 L 1108.76 467.49" fill="none" stroke="#000000"
              stroke-width="2.8" stroke-linecap="square" stroke-miterlimit="10"
              transform="translate(0,497)scale(1,-1)translate(0,-497)"
              pointer-events="none"/>
        <rect x="1134" y="616" width="92.4" height="19.6" fill-opacity="0"
              fill="#dae2f2" stroke="none" pointer-events="none"/>
        <g fill="#000000" font-family="Arial,Helvetica" font-weight="bold"
           text-anchor="middle" font-size="28px">
            <text x="1180.2" y="637">
                Attenuverter
            </text>
        </g>
        <rect x="992.6" y="432.6" width="2.8" height="2.8" fill="#000000"
              stroke="none" transform="rotate(90,994,476)" pointer-events="none"/>
        <rect x="992.6" y="516.6" width="2.8" height="2.8" fill="#000000"
              stroke="none" transform="rotate(90,994,476)" pointer-events="none"/>
        <path d="M 994 450.8 L 1003.8 455 L 994 459.2" fill="none"
              stroke="#000000" stroke-width="2.8" stroke-linejoin="round"
              stroke-linecap="round" stroke-miterlimit="10"
              transform="rotate(90,994,476)" pointer-events="none"/>
        <path d="M 994 459.2 L 984.2 463.4 L 994 467.6" fill="none"
              stroke="#000000" stroke-width="2.8" stroke-linejoin="round"
              stroke-linecap="round" stroke-miterlimit="10"
              transform="rotate(90,994,476)" pointer-events="none"/>
        <path d="M 994 467.6 L 1003.8 471.8 L 994 476" fill="none"
              stroke="#000000" stroke-width="2.8" stroke-linejoin="round"
              stroke-linecap="round" stroke-miterlimit="10"
              transform="rotate(90,994,476)" pointer-events="none"/>
        <path d="M 994 476 L 984.2 480.2 L 994 484.4" fill="none"
              stroke="#000000" stroke-width="2.8" stroke-linejoin="round"
              stroke-linecap="round" stroke-miterlimit="10"
              transform="rotate(90,994,476)" pointer-events="none"/>
        <path d="M 994 484.4 L 1003.8 488.6 L 994 492.8" fill="none"
              stroke="#000000" stroke-width="2.8" stroke-linejoin="round"
              stroke-linecap="round" stroke-miterlimit="10"
              transform="rotate(90,994,476)" pointer-events="none"/>
        <path d="M 994 492.8 L 984.2 497 L 994 501.2" fill="none"
              stroke="#000000" stroke-width="2.8" stroke-linejoin="round"
              stroke-linecap="round" stroke-miterlimit="10"
              transform="rotate(90,994,476)" pointer-events="none"/>
        <path d="M 994 435.4 L 994 449.4" fill="#000000" stroke="#000000"
              stroke-width="2.8" stroke-linecap="square" stroke-miterlimit="10"
              transform="rotate(90,994,476)" pointer-events="none"/>
        <path d="M 994 502.6 L 994 516.6" fill="#000000" stroke="#000000"
              stroke-width="2.8" stroke-linecap="square" stroke-miterlimit="10"
              transform="rotate(90,994,476)" pointer-events="none"/>
        <rect x="980" y="434" width="19.6" height="18.2" fill-opacity="0"
              fill="#dae2f2" stroke="none" pointer-events="none"/>
        <g fill="#000000" font-family="Arial,Helvetica" font-weight="bold"
           text-anchor="middle" font-size="28px">
            <text x="989.8" y="454.3">
                R1
            </text>
        </g>
        <rect x="1160.6" y="334.6" width="2.8" height="2.8" fill="#000000"
              stroke="none" transform="rotate(90,1162,378)"
              pointer-events="none"/>
        <rect x="1160.6" y="418.6" width="2.8" height="2.8" fill="#000000"
              stroke="none" transform="rotate(90,1162,378)"
              pointer-events="none"/>
        <path d="M 1162 352.8 L 1171.8 357 L 1162 361.2" fill="none"
              stroke="#000000" stroke-width="2.8" stroke-linejoin="round"
              stroke-linecap="round" stroke-miterlimit="10"
              transform="rotate(90,1162,378)" pointer-events="none"/>
        <path d="M 1162 361.2 L 1152.2 365.4 L 1162 369.6" fill="none"
              stroke="#000000" stroke-width="2.8" stroke-linejoin="round"
              stroke-linecap="round" stroke-miterlimit="10"
              transform="rotate(90,1162,378)" pointer-events="none"/>
        <path d="M 1162 369.6 L 1171.8 373.8 L 1162 378" fill="none"
              stroke="#000000" stroke-width="2.8" stroke-linejoin="round"
              stroke-linecap="round" stroke-miterlimit="10"
              transform="rotate(90,1162,378)" pointer-events="none"/>
        <path d="M 1162 378 L 1152.2 382.2 L 1162 386.4" fill="none"
              stroke="#000000" stroke-width="2.8" stroke-linejoin="round"
              stroke-linecap="round" stroke-miterlimit="10"
              transform="rotate(90,1162,378)" pointer-events="none"/>
        <path d="M 1162 386.4 L 1171.8 390.6 L 1162 394.8" fill="none"
              stroke="#000000" stroke-width="2.8" stroke-linejoin="round"
              stroke-linecap="round" stroke-miterlimit="10"
              transform="rotate(90,1162,378)" pointer-events="none"/>
        <path d="M 1162 394.8 L 1152.2 399 L 1162 403.2" fill="none"
              stroke="#000000" stroke-width="2.8" stroke-linejoin="round"
              stroke-linecap="round" stroke-miterlimit="10"
              transform="rotate(90,1162,378)" pointer-events="none"/>
        <path d="M 1162 337.4 L 1162 351.4" fill="#000000" stroke="#000000"
              stroke-width="2.8" stroke-linecap="square" stroke-miterlimit="10"
              transform="rotate(90,1162,378)" pointer-events="none"/>
        <path d="M 1162 404.6 L 1162 418.6" fill="#000000" stroke="#000000"
              stroke-width="2.8" stroke-linecap="square" stroke-miterlimit="10"
              transform="rotate(90,1162,378)" pointer-events="none"/>
        <rect x="1148" y="336" width="19.6" height="18.2" fill-opacity="0"
              fill="#dae2f2" stroke="none" pointer-events="none"/>
        <g fill="#000000" font-family="Arial,Helvetica" font-weight="bold"
           text-anchor="middle" font-size="28px">
            <text x="1157.8" y="356.3">
                R2
            </text>
        </g>
        <rect x="894.6" y="488.6" width="2.8" height="2.8" fill="#000000"
              stroke="none" pointer-events="none"/>
        <rect x="894.6" y="572.6" width="2.8" height="2.8" fill="#000000"
              stroke="none" pointer-events="none"/>
        <rect x="936.6" y="530.6" width="2.8" height="2.8" fill="#000000"
              stroke="none" pointer-events="none"/>
        <path d="M 896 506.8 L 905.8 511 L 896 515.2" fill="none"
              stroke="#000000" stroke-width="2.8" stroke-linejoin="round"
              stroke-linecap="round" stroke-miterlimit="10"
              pointer-events="none"/>
        <path d="M 896 515.2 L 886.2 519.4 L 896 523.6" fill="none"
              stroke="#000000" stroke-width="2.8" stroke-linejoin="round"
              stroke-linecap="round" stroke-miterlimit="10"
              pointer-events="none"/>
        <path d="M 896 523.6 L 905.8 527.8 L 896 532" fill="none"
              stroke="#000000" stroke-width="2.8" stroke-linejoin="round"
              stroke-linecap="round" stroke-miterlimit="10"
              pointer-events="none"/>
        <path d="M 896 532 L 886.2 536.2 L 896 540.4" fill="none"
              stroke="#000000" stroke-width="2.8" stroke-linejoin="round"
              stroke-linecap="round" stroke-miterlimit="10"
              pointer-events="none"/>
        <path d="M 896 540.4 L 905.8 544.6 L 896 548.8" fill="none"
              stroke="#000000" stroke-width="2.8" stroke-linejoin="round"
              stroke-linecap="round" stroke-miterlimit="10"
              pointer-events="none"/>
        <path d="M 896 548.8 L 886.2 553 L 896 557.2" fill="none"
              stroke="#000000" stroke-width="2.8" stroke-linejoin="round"
              stroke-linecap="round" stroke-miterlimit="10"
              pointer-events="none"/>
        <path d="M 896 491.4 L 896 505.4" fill="#000000" stroke="#000000"
              stroke-width="2.8" stroke-linecap="square" stroke-miterlimit="10"
              pointer-events="none"/>
        <path d="M 896 558.6 L 896 572.6" fill="#000000" stroke="#000000"
              stroke-width="2.8" stroke-linecap="square" stroke-miterlimit="10"
              pointer-events="none"/>
        <path d="M 917 532 L 936.6 532" fill="#000000" stroke="#000000"
              stroke-width="2.8" stroke-linecap="square" stroke-miterlimit="10"
              pointer-events="none"/>
        <path d="M 919.48 535.76 C 919.25 535.69 916.23 534.83 912.78 533.84 C 909.33 532.86 906.51 532.04 906.51 532.02 C 906.51 531.99 909.34 531.2 912.8 530.25 C 916.26 529.3 919.29 528.47 919.52 528.4 L 919.95 528.28 L 919.93 532.08 L 919.91 535.88 L 919.48 535.76 Z"
              fill="#000000" stroke="#000000" stroke-width="1.26"
              stroke-linejoin="round" stroke-linecap="square"
              stroke-miterlimit="10" pointer-events="none"/>
        <rect x="854" y="518" width="11.2" height="19.6" fill-opacity="0"
              fill="#dae2f2" stroke="none" pointer-events="none"/>
        <g fill="#000000" font-family="Arial,Helvetica" font-weight="bold"
           text-anchor="middle" font-size="28px">
            <text x="859.6" y="539">
                A
            </text>
        </g>
        <path d="M 1036 476 L 1064 476" fill="none" stroke="#000000"
              stroke-width="2.8" stroke-miterlimit="10" pointer-events="none"/>
        <rect x="894.6" y="572.6" width="2.8" height="2.8" fill="#000000"
              stroke="none" pointer-events="none"/>
        <path d="M 896 575.4 L 896 600.6" fill="#000000" stroke="#000000"
              stroke-width="2.8" stroke-linecap="square" stroke-miterlimit="10"
              pointer-events="none"/>
        <path d="M 880.6 601.34 L 911.4 601.34 L 896 627.94 Z" fill="#ffffff"
              stroke="#000000" stroke-width="2.8" stroke-linejoin="round"
              stroke-linecap="square" stroke-miterlimit="10"
              pointer-events="none"/>
        <rect x="824.6" y="474.6" width="2.8" height="2.8" fill="#000000"
              stroke="none" pointer-events="none"/>
        <path d="M 800.8 476 L 824.6 476" fill="#000000" stroke="#000000"
              stroke-width="2.8" stroke-linecap="square" stroke-miterlimit="10"
              pointer-events="none"/>
        <path d="M 793.88 468.08 L 801.81 476 L 793.88 483.92" fill="none"
              stroke="#000000" stroke-width="2.8" stroke-linecap="square"
              stroke-miterlimit="10" pointer-events="none"/>
        <rect x="742" y="462" width="23.8" height="19.6" fill-opacity="0"
              fill="#dae2f2" stroke="none" pointer-events="none"/>
        <g fill="#000000" font-family="Arial,Helvetica" font-weight="bold"
           text-anchor="middle" font-size="28px">
            <text x="753.9" y="483">
                Vin
            </text>
        </g>
        <rect x="1342.6" y="502.6" width="2.8" height="2.8" fill="#000000"
              stroke="none" transform="rotate(180,1330,504)"
              pointer-events="none"/>
        <path d="M 1318.8 504 L 1342.6 504" fill="#000000" stroke="#000000"
              stroke-width="2.8" stroke-linecap="square" stroke-miterlimit="10"
              transform="rotate(180,1330,504)" pointer-events="none"/>
        <path d="M 1325.67 496.08 L 1317.76 504 L 1325.67 511.92" fill="none"
              stroke="#000000" stroke-width="2.8" stroke-linecap="square"
              stroke-miterlimit="10" transform="rotate(180,1330,504)"
              pointer-events="none"/>
        <rect x="1372" y="490" width="33.6" height="19.6" fill-opacity="0"
              fill="#dae2f2" stroke="none" pointer-events="none"/>
        <g fill="#000000" font-family="Arial,Helvetica" font-weight="bold"
           text-anchor="middle" font-size="28px">
            <text x="1388.8" y="511">
                Vout
            </text>
        </g>
        <path d="M 1246 504 L 1316 504" fill="none" stroke="#000000"
              stroke-width="2.8" stroke-miterlimit="10" pointer-events="none"/>
        <path d="M 896 490 L 896 476 L 952 476" fill="none" stroke="#000000"
              stroke-width="2.8" stroke-miterlimit="10" pointer-events="none"/>
        <path d="M 826 476 L 893.2 476" fill="none" stroke="#000000"
              stroke-width="2.8" stroke-miterlimit="10" pointer-events="none"/>
        <ellipse cx="896" cy="476" rx="2.8" ry="2.8" fill="#000000"
                 stroke="#000000" stroke-width="2.8" pointer-events="none"/>
        <path d="M 1064 532 L 938 532" fill="none" stroke="#000000"
              stroke-width="2.8" stroke-miterlimit="10" pointer-events="none"/>
        <path d="M 1120 378 L 1050 378 L 1050 473.2" fill="none"
              stroke="#000000" stroke-width="2.8" stroke-miterlimit="10"
              pointer-events="none"/>
        <ellipse cx="1050" cy="476" rx="2.8" ry="2.8" fill="#000000"
                 stroke="#000000" stroke-width="2.8" pointer-events="none"/>
        <path d="M 1204 378 L 1274 378 L 1274 501.2" fill="none"
              stroke="#000000" stroke-width="2.8" stroke-miterlimit="10"
              pointer-events="none"/>
        <ellipse cx="1274" cy="504" rx="2.8" ry="2.8" fill="#000000"
                 stroke="#000000" stroke-width="2.8" pointer-events="none"/>
    </g>
</svg>